G04 #@! TF.FileFunction,Copper,L1,Top,Signal*
%FSLAX46Y46*%
G04 Gerber Fmt 4.6, Leading zero omitted, Abs format (unit mm)*
G04 Created by KiCad (PCBNEW 4.0.2-stable) date Sunday, June 19, 2016 'PMt' 09:02:22 PM*
%MOMM*%
G01*
G04 APERTURE LIST*
%ADD10C,0.100000*%
%ADD11R,1.600000X2.000000*%
%ADD12R,1.198880X1.198880*%
%ADD13R,1.300000X1.500000*%
%ADD14R,1.550000X0.600000*%
%ADD15C,0.685800*%
%ADD16C,0.254000*%
G04 APERTURE END LIST*
D10*
D11*
X148590000Y-104680000D03*
X148590000Y-108680000D03*
D12*
X130810000Y-105630980D03*
X130810000Y-107729020D03*
D13*
X148590000Y-91360000D03*
X148590000Y-94060000D03*
X148590000Y-97710000D03*
X148590000Y-100410000D03*
X130810000Y-97710000D03*
X130810000Y-100410000D03*
D14*
X137000000Y-97155000D03*
X137000000Y-98425000D03*
X137000000Y-99695000D03*
X137000000Y-100965000D03*
X142400000Y-100965000D03*
X142400000Y-99695000D03*
X142400000Y-98425000D03*
X142400000Y-97155000D03*
D15*
X139700000Y-107950000D03*
X133350000Y-102870000D03*
X142240000Y-92710000D03*
D16*
X148590000Y-100410000D02*
X147400000Y-100410000D01*
X146685000Y-99695000D02*
X142400000Y-99695000D01*
X147400000Y-100410000D02*
X146685000Y-99695000D01*
X137000000Y-98425000D02*
X139065000Y-98425000D01*
X139065000Y-98425000D02*
X140335000Y-99695000D01*
X140335000Y-99695000D02*
X142400000Y-99695000D01*
X148590000Y-100410000D02*
X148590000Y-104680000D01*
X130810000Y-100410000D02*
X130810000Y-105630980D01*
X137000000Y-100965000D02*
X136525000Y-100965000D01*
X136525000Y-100965000D02*
X133350000Y-102870000D01*
X142400000Y-97155000D02*
X142400000Y-92870000D01*
X142400000Y-92870000D02*
X142240000Y-92710000D01*
X142400000Y-97155000D02*
X142400000Y-96360000D01*
X147400000Y-91360000D02*
X148590000Y-91360000D01*
X142400000Y-96360000D02*
X147400000Y-91360000D01*
X142400000Y-98425000D02*
X147875000Y-98425000D01*
X147875000Y-98425000D02*
X148590000Y-97710000D01*
X148590000Y-94060000D02*
X148590000Y-97710000D01*
X137000000Y-99695000D02*
X135255000Y-99695000D01*
X133270000Y-97710000D02*
X130810000Y-97710000D01*
X135255000Y-99695000D02*
X133270000Y-97710000D01*
G36*
X156770000Y-113590000D02*
X122630000Y-113590000D01*
X122630000Y-108965750D01*
X147155000Y-108965750D01*
X147155000Y-109806309D01*
X147251673Y-110039698D01*
X147430301Y-110218327D01*
X147663690Y-110315000D01*
X148304250Y-110315000D01*
X148463000Y-110156250D01*
X148463000Y-108807000D01*
X148717000Y-108807000D01*
X148717000Y-110156250D01*
X148875750Y-110315000D01*
X149516310Y-110315000D01*
X149749699Y-110218327D01*
X149928327Y-110039698D01*
X150025000Y-109806309D01*
X150025000Y-108965750D01*
X149866250Y-108807000D01*
X148717000Y-108807000D01*
X148463000Y-108807000D01*
X147313750Y-108807000D01*
X147155000Y-108965750D01*
X122630000Y-108965750D01*
X122630000Y-108014770D01*
X129575560Y-108014770D01*
X129575560Y-108454769D01*
X129672233Y-108688158D01*
X129850861Y-108866787D01*
X130084250Y-108963460D01*
X130524250Y-108963460D01*
X130683000Y-108804710D01*
X130683000Y-107856020D01*
X130937000Y-107856020D01*
X130937000Y-108804710D01*
X131095750Y-108963460D01*
X131535750Y-108963460D01*
X131769139Y-108866787D01*
X131947767Y-108688158D01*
X132044440Y-108454769D01*
X132044440Y-108014770D01*
X131885690Y-107856020D01*
X130937000Y-107856020D01*
X130683000Y-107856020D01*
X129734310Y-107856020D01*
X129575560Y-108014770D01*
X122630000Y-108014770D01*
X122630000Y-96960000D01*
X129512560Y-96960000D01*
X129512560Y-98460000D01*
X129556838Y-98695317D01*
X129695910Y-98911441D01*
X129908110Y-99056431D01*
X129921197Y-99059081D01*
X129708559Y-99195910D01*
X129563569Y-99408110D01*
X129512560Y-99660000D01*
X129512560Y-101160000D01*
X129556838Y-101395317D01*
X129695910Y-101611441D01*
X129908110Y-101756431D01*
X130048000Y-101784759D01*
X130048000Y-104414688D01*
X129975243Y-104428378D01*
X129759119Y-104567450D01*
X129614129Y-104779650D01*
X129563120Y-105031540D01*
X129563120Y-106230420D01*
X129607398Y-106465737D01*
X129746470Y-106681861D01*
X129754659Y-106687456D01*
X129672233Y-106769882D01*
X129575560Y-107003271D01*
X129575560Y-107443270D01*
X129734310Y-107602020D01*
X130683000Y-107602020D01*
X130683000Y-107582020D01*
X130937000Y-107582020D01*
X130937000Y-107602020D01*
X131885690Y-107602020D01*
X131934019Y-107553691D01*
X147155000Y-107553691D01*
X147155000Y-108394250D01*
X147313750Y-108553000D01*
X148463000Y-108553000D01*
X148463000Y-107203750D01*
X148717000Y-107203750D01*
X148717000Y-108553000D01*
X149866250Y-108553000D01*
X150025000Y-108394250D01*
X150025000Y-107553691D01*
X149928327Y-107320302D01*
X149749699Y-107141673D01*
X149516310Y-107045000D01*
X148875750Y-107045000D01*
X148717000Y-107203750D01*
X148463000Y-107203750D01*
X148304250Y-107045000D01*
X147663690Y-107045000D01*
X147430301Y-107141673D01*
X147251673Y-107320302D01*
X147155000Y-107553691D01*
X131934019Y-107553691D01*
X132044440Y-107443270D01*
X132044440Y-107003271D01*
X131947767Y-106769882D01*
X131865555Y-106687669D01*
X132005871Y-106482310D01*
X132056880Y-106230420D01*
X132056880Y-105031540D01*
X132012602Y-104796223D01*
X131873530Y-104580099D01*
X131661330Y-104435109D01*
X131572000Y-104417019D01*
X131572000Y-101786366D01*
X131695317Y-101763162D01*
X131911441Y-101624090D01*
X132056431Y-101411890D01*
X132107440Y-101160000D01*
X132107440Y-99660000D01*
X132063162Y-99424683D01*
X131924090Y-99208559D01*
X131711890Y-99063569D01*
X131698803Y-99060919D01*
X131911441Y-98924090D01*
X132056431Y-98711890D01*
X132105010Y-98472000D01*
X132954370Y-98472000D01*
X134716185Y-100233815D01*
X134963395Y-100398996D01*
X135255000Y-100457000D01*
X135619681Y-100457000D01*
X135582210Y-100642037D01*
X133498556Y-101892229D01*
X133156337Y-101891931D01*
X132796788Y-102040493D01*
X132521460Y-102315341D01*
X132372270Y-102674630D01*
X132371931Y-103063663D01*
X132520493Y-103423212D01*
X132795341Y-103698540D01*
X133154630Y-103847730D01*
X133543663Y-103848069D01*
X133903212Y-103699507D01*
X134178540Y-103424659D01*
X134268762Y-103207380D01*
X136426995Y-101912440D01*
X137775000Y-101912440D01*
X138010317Y-101868162D01*
X138226441Y-101729090D01*
X138371431Y-101516890D01*
X138422440Y-101265000D01*
X138422440Y-101250750D01*
X140990000Y-101250750D01*
X140990000Y-101391310D01*
X141086673Y-101624699D01*
X141265302Y-101803327D01*
X141498691Y-101900000D01*
X142114250Y-101900000D01*
X142273000Y-101741250D01*
X142273000Y-101092000D01*
X142527000Y-101092000D01*
X142527000Y-101741250D01*
X142685750Y-101900000D01*
X143301309Y-101900000D01*
X143534698Y-101803327D01*
X143713327Y-101624699D01*
X143810000Y-101391310D01*
X143810000Y-101250750D01*
X143651250Y-101092000D01*
X142527000Y-101092000D01*
X142273000Y-101092000D01*
X141148750Y-101092000D01*
X140990000Y-101250750D01*
X138422440Y-101250750D01*
X138422440Y-100665000D01*
X138378162Y-100429683D01*
X138314322Y-100330472D01*
X138371431Y-100246890D01*
X138422440Y-99995000D01*
X138422440Y-99395000D01*
X138383302Y-99187000D01*
X138749370Y-99187000D01*
X139796184Y-100233815D01*
X139974180Y-100352748D01*
X140043395Y-100398996D01*
X140335000Y-100457000D01*
X141023837Y-100457000D01*
X140990000Y-100538690D01*
X140990000Y-100679250D01*
X141148750Y-100838000D01*
X142273000Y-100838000D01*
X142273000Y-100818000D01*
X142527000Y-100818000D01*
X142527000Y-100838000D01*
X143651250Y-100838000D01*
X143810000Y-100679250D01*
X143810000Y-100538690D01*
X143776163Y-100457000D01*
X146369370Y-100457000D01*
X146861185Y-100948816D01*
X147009377Y-101047834D01*
X147108395Y-101113996D01*
X147292560Y-101150629D01*
X147292560Y-101160000D01*
X147336838Y-101395317D01*
X147475910Y-101611441D01*
X147688110Y-101756431D01*
X147828000Y-101784759D01*
X147828000Y-103032560D01*
X147790000Y-103032560D01*
X147554683Y-103076838D01*
X147338559Y-103215910D01*
X147193569Y-103428110D01*
X147142560Y-103680000D01*
X147142560Y-105680000D01*
X147186838Y-105915317D01*
X147325910Y-106131441D01*
X147538110Y-106276431D01*
X147790000Y-106327440D01*
X149390000Y-106327440D01*
X149625317Y-106283162D01*
X149841441Y-106144090D01*
X149986431Y-105931890D01*
X150037440Y-105680000D01*
X150037440Y-103680000D01*
X149993162Y-103444683D01*
X149854090Y-103228559D01*
X149641890Y-103083569D01*
X149390000Y-103032560D01*
X149352000Y-103032560D01*
X149352000Y-101786366D01*
X149475317Y-101763162D01*
X149691441Y-101624090D01*
X149836431Y-101411890D01*
X149887440Y-101160000D01*
X149887440Y-99660000D01*
X149843162Y-99424683D01*
X149704090Y-99208559D01*
X149491890Y-99063569D01*
X149478803Y-99060919D01*
X149691441Y-98924090D01*
X149836431Y-98711890D01*
X149887440Y-98460000D01*
X149887440Y-96960000D01*
X149843162Y-96724683D01*
X149704090Y-96508559D01*
X149491890Y-96363569D01*
X149352000Y-96335241D01*
X149352000Y-95436366D01*
X149475317Y-95413162D01*
X149691441Y-95274090D01*
X149836431Y-95061890D01*
X149887440Y-94810000D01*
X149887440Y-93310000D01*
X149843162Y-93074683D01*
X149704090Y-92858559D01*
X149491890Y-92713569D01*
X149478803Y-92710919D01*
X149691441Y-92574090D01*
X149836431Y-92361890D01*
X149887440Y-92110000D01*
X149887440Y-90610000D01*
X149843162Y-90374683D01*
X149704090Y-90158559D01*
X149491890Y-90013569D01*
X149240000Y-89962560D01*
X147940000Y-89962560D01*
X147704683Y-90006838D01*
X147488559Y-90145910D01*
X147343569Y-90358110D01*
X147292560Y-90610000D01*
X147292560Y-90619371D01*
X147108395Y-90656004D01*
X147009377Y-90722166D01*
X146861185Y-90821184D01*
X143162000Y-94520370D01*
X143162000Y-93039583D01*
X143217730Y-92905370D01*
X143218069Y-92516337D01*
X143069507Y-92156788D01*
X142794659Y-91881460D01*
X142435370Y-91732270D01*
X142046337Y-91731931D01*
X141686788Y-91880493D01*
X141411460Y-92155341D01*
X141262270Y-92514630D01*
X141261931Y-92903663D01*
X141410493Y-93263212D01*
X141638000Y-93491116D01*
X141638000Y-96207560D01*
X141625000Y-96207560D01*
X141389683Y-96251838D01*
X141173559Y-96390910D01*
X141028569Y-96603110D01*
X140977560Y-96855000D01*
X140977560Y-97455000D01*
X141021838Y-97690317D01*
X141085678Y-97789528D01*
X141028569Y-97873110D01*
X140977560Y-98125000D01*
X140977560Y-98725000D01*
X141016698Y-98933000D01*
X140650631Y-98933000D01*
X139603815Y-97886185D01*
X139496829Y-97814699D01*
X139356605Y-97721004D01*
X139065000Y-97663000D01*
X138376163Y-97663000D01*
X138410000Y-97581310D01*
X138410000Y-97440750D01*
X138251250Y-97282000D01*
X137127000Y-97282000D01*
X137127000Y-97302000D01*
X136873000Y-97302000D01*
X136873000Y-97282000D01*
X135748750Y-97282000D01*
X135590000Y-97440750D01*
X135590000Y-97581310D01*
X135679806Y-97798122D01*
X135628569Y-97873110D01*
X135577560Y-98125000D01*
X135577560Y-98725000D01*
X135616698Y-98933000D01*
X135570630Y-98933000D01*
X133808814Y-97171184D01*
X133561605Y-97006004D01*
X133270000Y-96948000D01*
X132105182Y-96948000D01*
X132063916Y-96728690D01*
X135590000Y-96728690D01*
X135590000Y-96869250D01*
X135748750Y-97028000D01*
X136873000Y-97028000D01*
X136873000Y-96378750D01*
X137127000Y-96378750D01*
X137127000Y-97028000D01*
X138251250Y-97028000D01*
X138410000Y-96869250D01*
X138410000Y-96728690D01*
X138313327Y-96495301D01*
X138134698Y-96316673D01*
X137901309Y-96220000D01*
X137285750Y-96220000D01*
X137127000Y-96378750D01*
X136873000Y-96378750D01*
X136714250Y-96220000D01*
X136098691Y-96220000D01*
X135865302Y-96316673D01*
X135686673Y-96495301D01*
X135590000Y-96728690D01*
X132063916Y-96728690D01*
X132063162Y-96724683D01*
X131924090Y-96508559D01*
X131711890Y-96363569D01*
X131460000Y-96312560D01*
X130160000Y-96312560D01*
X129924683Y-96356838D01*
X129708559Y-96495910D01*
X129563569Y-96708110D01*
X129512560Y-96960000D01*
X122630000Y-96960000D01*
X122630000Y-87070000D01*
X156770000Y-87070000D01*
X156770000Y-113590000D01*
X156770000Y-113590000D01*
G37*
X156770000Y-113590000D02*
X122630000Y-113590000D01*
X122630000Y-108965750D01*
X147155000Y-108965750D01*
X147155000Y-109806309D01*
X147251673Y-110039698D01*
X147430301Y-110218327D01*
X147663690Y-110315000D01*
X148304250Y-110315000D01*
X148463000Y-110156250D01*
X148463000Y-108807000D01*
X148717000Y-108807000D01*
X148717000Y-110156250D01*
X148875750Y-110315000D01*
X149516310Y-110315000D01*
X149749699Y-110218327D01*
X149928327Y-110039698D01*
X150025000Y-109806309D01*
X150025000Y-108965750D01*
X149866250Y-108807000D01*
X148717000Y-108807000D01*
X148463000Y-108807000D01*
X147313750Y-108807000D01*
X147155000Y-108965750D01*
X122630000Y-108965750D01*
X122630000Y-108014770D01*
X129575560Y-108014770D01*
X129575560Y-108454769D01*
X129672233Y-108688158D01*
X129850861Y-108866787D01*
X130084250Y-108963460D01*
X130524250Y-108963460D01*
X130683000Y-108804710D01*
X130683000Y-107856020D01*
X130937000Y-107856020D01*
X130937000Y-108804710D01*
X131095750Y-108963460D01*
X131535750Y-108963460D01*
X131769139Y-108866787D01*
X131947767Y-108688158D01*
X132044440Y-108454769D01*
X132044440Y-108014770D01*
X131885690Y-107856020D01*
X130937000Y-107856020D01*
X130683000Y-107856020D01*
X129734310Y-107856020D01*
X129575560Y-108014770D01*
X122630000Y-108014770D01*
X122630000Y-96960000D01*
X129512560Y-96960000D01*
X129512560Y-98460000D01*
X129556838Y-98695317D01*
X129695910Y-98911441D01*
X129908110Y-99056431D01*
X129921197Y-99059081D01*
X129708559Y-99195910D01*
X129563569Y-99408110D01*
X129512560Y-99660000D01*
X129512560Y-101160000D01*
X129556838Y-101395317D01*
X129695910Y-101611441D01*
X129908110Y-101756431D01*
X130048000Y-101784759D01*
X130048000Y-104414688D01*
X129975243Y-104428378D01*
X129759119Y-104567450D01*
X129614129Y-104779650D01*
X129563120Y-105031540D01*
X129563120Y-106230420D01*
X129607398Y-106465737D01*
X129746470Y-106681861D01*
X129754659Y-106687456D01*
X129672233Y-106769882D01*
X129575560Y-107003271D01*
X129575560Y-107443270D01*
X129734310Y-107602020D01*
X130683000Y-107602020D01*
X130683000Y-107582020D01*
X130937000Y-107582020D01*
X130937000Y-107602020D01*
X131885690Y-107602020D01*
X131934019Y-107553691D01*
X147155000Y-107553691D01*
X147155000Y-108394250D01*
X147313750Y-108553000D01*
X148463000Y-108553000D01*
X148463000Y-107203750D01*
X148717000Y-107203750D01*
X148717000Y-108553000D01*
X149866250Y-108553000D01*
X150025000Y-108394250D01*
X150025000Y-107553691D01*
X149928327Y-107320302D01*
X149749699Y-107141673D01*
X149516310Y-107045000D01*
X148875750Y-107045000D01*
X148717000Y-107203750D01*
X148463000Y-107203750D01*
X148304250Y-107045000D01*
X147663690Y-107045000D01*
X147430301Y-107141673D01*
X147251673Y-107320302D01*
X147155000Y-107553691D01*
X131934019Y-107553691D01*
X132044440Y-107443270D01*
X132044440Y-107003271D01*
X131947767Y-106769882D01*
X131865555Y-106687669D01*
X132005871Y-106482310D01*
X132056880Y-106230420D01*
X132056880Y-105031540D01*
X132012602Y-104796223D01*
X131873530Y-104580099D01*
X131661330Y-104435109D01*
X131572000Y-104417019D01*
X131572000Y-101786366D01*
X131695317Y-101763162D01*
X131911441Y-101624090D01*
X132056431Y-101411890D01*
X132107440Y-101160000D01*
X132107440Y-99660000D01*
X132063162Y-99424683D01*
X131924090Y-99208559D01*
X131711890Y-99063569D01*
X131698803Y-99060919D01*
X131911441Y-98924090D01*
X132056431Y-98711890D01*
X132105010Y-98472000D01*
X132954370Y-98472000D01*
X134716185Y-100233815D01*
X134963395Y-100398996D01*
X135255000Y-100457000D01*
X135619681Y-100457000D01*
X135582210Y-100642037D01*
X133498556Y-101892229D01*
X133156337Y-101891931D01*
X132796788Y-102040493D01*
X132521460Y-102315341D01*
X132372270Y-102674630D01*
X132371931Y-103063663D01*
X132520493Y-103423212D01*
X132795341Y-103698540D01*
X133154630Y-103847730D01*
X133543663Y-103848069D01*
X133903212Y-103699507D01*
X134178540Y-103424659D01*
X134268762Y-103207380D01*
X136426995Y-101912440D01*
X137775000Y-101912440D01*
X138010317Y-101868162D01*
X138226441Y-101729090D01*
X138371431Y-101516890D01*
X138422440Y-101265000D01*
X138422440Y-101250750D01*
X140990000Y-101250750D01*
X140990000Y-101391310D01*
X141086673Y-101624699D01*
X141265302Y-101803327D01*
X141498691Y-101900000D01*
X142114250Y-101900000D01*
X142273000Y-101741250D01*
X142273000Y-101092000D01*
X142527000Y-101092000D01*
X142527000Y-101741250D01*
X142685750Y-101900000D01*
X143301309Y-101900000D01*
X143534698Y-101803327D01*
X143713327Y-101624699D01*
X143810000Y-101391310D01*
X143810000Y-101250750D01*
X143651250Y-101092000D01*
X142527000Y-101092000D01*
X142273000Y-101092000D01*
X141148750Y-101092000D01*
X140990000Y-101250750D01*
X138422440Y-101250750D01*
X138422440Y-100665000D01*
X138378162Y-100429683D01*
X138314322Y-100330472D01*
X138371431Y-100246890D01*
X138422440Y-99995000D01*
X138422440Y-99395000D01*
X138383302Y-99187000D01*
X138749370Y-99187000D01*
X139796184Y-100233815D01*
X139974180Y-100352748D01*
X140043395Y-100398996D01*
X140335000Y-100457000D01*
X141023837Y-100457000D01*
X140990000Y-100538690D01*
X140990000Y-100679250D01*
X141148750Y-100838000D01*
X142273000Y-100838000D01*
X142273000Y-100818000D01*
X142527000Y-100818000D01*
X142527000Y-100838000D01*
X143651250Y-100838000D01*
X143810000Y-100679250D01*
X143810000Y-100538690D01*
X143776163Y-100457000D01*
X146369370Y-100457000D01*
X146861185Y-100948816D01*
X147009377Y-101047834D01*
X147108395Y-101113996D01*
X147292560Y-101150629D01*
X147292560Y-101160000D01*
X147336838Y-101395317D01*
X147475910Y-101611441D01*
X147688110Y-101756431D01*
X147828000Y-101784759D01*
X147828000Y-103032560D01*
X147790000Y-103032560D01*
X147554683Y-103076838D01*
X147338559Y-103215910D01*
X147193569Y-103428110D01*
X147142560Y-103680000D01*
X147142560Y-105680000D01*
X147186838Y-105915317D01*
X147325910Y-106131441D01*
X147538110Y-106276431D01*
X147790000Y-106327440D01*
X149390000Y-106327440D01*
X149625317Y-106283162D01*
X149841441Y-106144090D01*
X149986431Y-105931890D01*
X150037440Y-105680000D01*
X150037440Y-103680000D01*
X149993162Y-103444683D01*
X149854090Y-103228559D01*
X149641890Y-103083569D01*
X149390000Y-103032560D01*
X149352000Y-103032560D01*
X149352000Y-101786366D01*
X149475317Y-101763162D01*
X149691441Y-101624090D01*
X149836431Y-101411890D01*
X149887440Y-101160000D01*
X149887440Y-99660000D01*
X149843162Y-99424683D01*
X149704090Y-99208559D01*
X149491890Y-99063569D01*
X149478803Y-99060919D01*
X149691441Y-98924090D01*
X149836431Y-98711890D01*
X149887440Y-98460000D01*
X149887440Y-96960000D01*
X149843162Y-96724683D01*
X149704090Y-96508559D01*
X149491890Y-96363569D01*
X149352000Y-96335241D01*
X149352000Y-95436366D01*
X149475317Y-95413162D01*
X149691441Y-95274090D01*
X149836431Y-95061890D01*
X149887440Y-94810000D01*
X149887440Y-93310000D01*
X149843162Y-93074683D01*
X149704090Y-92858559D01*
X149491890Y-92713569D01*
X149478803Y-92710919D01*
X149691441Y-92574090D01*
X149836431Y-92361890D01*
X149887440Y-92110000D01*
X149887440Y-90610000D01*
X149843162Y-90374683D01*
X149704090Y-90158559D01*
X149491890Y-90013569D01*
X149240000Y-89962560D01*
X147940000Y-89962560D01*
X147704683Y-90006838D01*
X147488559Y-90145910D01*
X147343569Y-90358110D01*
X147292560Y-90610000D01*
X147292560Y-90619371D01*
X147108395Y-90656004D01*
X147009377Y-90722166D01*
X146861185Y-90821184D01*
X143162000Y-94520370D01*
X143162000Y-93039583D01*
X143217730Y-92905370D01*
X143218069Y-92516337D01*
X143069507Y-92156788D01*
X142794659Y-91881460D01*
X142435370Y-91732270D01*
X142046337Y-91731931D01*
X141686788Y-91880493D01*
X141411460Y-92155341D01*
X141262270Y-92514630D01*
X141261931Y-92903663D01*
X141410493Y-93263212D01*
X141638000Y-93491116D01*
X141638000Y-96207560D01*
X141625000Y-96207560D01*
X141389683Y-96251838D01*
X141173559Y-96390910D01*
X141028569Y-96603110D01*
X140977560Y-96855000D01*
X140977560Y-97455000D01*
X141021838Y-97690317D01*
X141085678Y-97789528D01*
X141028569Y-97873110D01*
X140977560Y-98125000D01*
X140977560Y-98725000D01*
X141016698Y-98933000D01*
X140650631Y-98933000D01*
X139603815Y-97886185D01*
X139496829Y-97814699D01*
X139356605Y-97721004D01*
X139065000Y-97663000D01*
X138376163Y-97663000D01*
X138410000Y-97581310D01*
X138410000Y-97440750D01*
X138251250Y-97282000D01*
X137127000Y-97282000D01*
X137127000Y-97302000D01*
X136873000Y-97302000D01*
X136873000Y-97282000D01*
X135748750Y-97282000D01*
X135590000Y-97440750D01*
X135590000Y-97581310D01*
X135679806Y-97798122D01*
X135628569Y-97873110D01*
X135577560Y-98125000D01*
X135577560Y-98725000D01*
X135616698Y-98933000D01*
X135570630Y-98933000D01*
X133808814Y-97171184D01*
X133561605Y-97006004D01*
X133270000Y-96948000D01*
X132105182Y-96948000D01*
X132063916Y-96728690D01*
X135590000Y-96728690D01*
X135590000Y-96869250D01*
X135748750Y-97028000D01*
X136873000Y-97028000D01*
X136873000Y-96378750D01*
X137127000Y-96378750D01*
X137127000Y-97028000D01*
X138251250Y-97028000D01*
X138410000Y-96869250D01*
X138410000Y-96728690D01*
X138313327Y-96495301D01*
X138134698Y-96316673D01*
X137901309Y-96220000D01*
X137285750Y-96220000D01*
X137127000Y-96378750D01*
X136873000Y-96378750D01*
X136714250Y-96220000D01*
X136098691Y-96220000D01*
X135865302Y-96316673D01*
X135686673Y-96495301D01*
X135590000Y-96728690D01*
X132063916Y-96728690D01*
X132063162Y-96724683D01*
X131924090Y-96508559D01*
X131711890Y-96363569D01*
X131460000Y-96312560D01*
X130160000Y-96312560D01*
X129924683Y-96356838D01*
X129708559Y-96495910D01*
X129563569Y-96708110D01*
X129512560Y-96960000D01*
X122630000Y-96960000D01*
X122630000Y-87070000D01*
X156770000Y-87070000D01*
X156770000Y-113590000D01*
M02*
