G04 #@! TF.FileFunction,Legend,Top*
%FSLAX46Y46*%
G04 Gerber Fmt 4.6, Leading zero omitted, Abs format (unit mm)*
G04 Created by KiCad (PCBNEW 4.0.2-stable) date Sunday, June 19, 2016 'PMt' 09:02:22 PM*
%MOMM*%
G01*
G04 APERTURE LIST*
%ADD10C,0.100000*%
%ADD11C,0.300000*%
%ADD12C,0.150000*%
%ADD13R,2.000000X2.400000*%
%ADD14R,1.598880X1.598880*%
%ADD15R,1.700000X1.900000*%
%ADD16R,1.950000X1.000000*%
G04 APERTURE END LIST*
D10*
D11*
X131128571Y-88220000D02*
X130985714Y-88148571D01*
X130771428Y-88148571D01*
X130557143Y-88220000D01*
X130414285Y-88362857D01*
X130342857Y-88505714D01*
X130271428Y-88791429D01*
X130271428Y-89005714D01*
X130342857Y-89291429D01*
X130414285Y-89434286D01*
X130557143Y-89577143D01*
X130771428Y-89648571D01*
X130914285Y-89648571D01*
X131128571Y-89577143D01*
X131200000Y-89505714D01*
X131200000Y-89005714D01*
X130914285Y-89005714D01*
X132414285Y-89577143D02*
X132271428Y-89648571D01*
X131985714Y-89648571D01*
X131842857Y-89577143D01*
X131771428Y-89434286D01*
X131771428Y-88862857D01*
X131842857Y-88720000D01*
X131985714Y-88648571D01*
X132271428Y-88648571D01*
X132414285Y-88720000D01*
X132485714Y-88862857D01*
X132485714Y-89005714D01*
X131771428Y-89148571D01*
X132914285Y-88648571D02*
X133485714Y-88648571D01*
X133128571Y-88148571D02*
X133128571Y-89434286D01*
X133199999Y-89577143D01*
X133342857Y-89648571D01*
X133485714Y-89648571D01*
X133771428Y-88648571D02*
X134342857Y-88648571D01*
X133985714Y-88148571D02*
X133985714Y-89434286D01*
X134057142Y-89577143D01*
X134200000Y-89648571D01*
X134342857Y-89648571D01*
X134842857Y-89648571D02*
X134842857Y-88648571D01*
X134842857Y-88148571D02*
X134771428Y-88220000D01*
X134842857Y-88291429D01*
X134914285Y-88220000D01*
X134842857Y-88148571D01*
X134842857Y-88291429D01*
X135557143Y-88648571D02*
X135557143Y-89648571D01*
X135557143Y-88791429D02*
X135628571Y-88720000D01*
X135771429Y-88648571D01*
X135985714Y-88648571D01*
X136128571Y-88720000D01*
X136200000Y-88862857D01*
X136200000Y-89648571D01*
X137557143Y-88648571D02*
X137557143Y-89862857D01*
X137485714Y-90005714D01*
X137414286Y-90077143D01*
X137271429Y-90148571D01*
X137057143Y-90148571D01*
X136914286Y-90077143D01*
X137557143Y-89577143D02*
X137414286Y-89648571D01*
X137128572Y-89648571D01*
X136985714Y-89577143D01*
X136914286Y-89505714D01*
X136842857Y-89362857D01*
X136842857Y-88934286D01*
X136914286Y-88791429D01*
X136985714Y-88720000D01*
X137128572Y-88648571D01*
X137414286Y-88648571D01*
X137557143Y-88720000D01*
X139200000Y-88148571D02*
X140057143Y-88148571D01*
X139628572Y-89648571D02*
X139628572Y-88148571D01*
X140771429Y-89648571D02*
X140628571Y-89577143D01*
X140557143Y-89505714D01*
X140485714Y-89362857D01*
X140485714Y-88934286D01*
X140557143Y-88791429D01*
X140628571Y-88720000D01*
X140771429Y-88648571D01*
X140985714Y-88648571D01*
X141128571Y-88720000D01*
X141200000Y-88791429D01*
X141271429Y-88934286D01*
X141271429Y-89362857D01*
X141200000Y-89505714D01*
X141128571Y-89577143D01*
X140985714Y-89648571D01*
X140771429Y-89648571D01*
X143557143Y-88862857D02*
X143771429Y-88934286D01*
X143842857Y-89005714D01*
X143914286Y-89148571D01*
X143914286Y-89362857D01*
X143842857Y-89505714D01*
X143771429Y-89577143D01*
X143628571Y-89648571D01*
X143057143Y-89648571D01*
X143057143Y-88148571D01*
X143557143Y-88148571D01*
X143700000Y-88220000D01*
X143771429Y-88291429D01*
X143842857Y-88434286D01*
X143842857Y-88577143D01*
X143771429Y-88720000D01*
X143700000Y-88791429D01*
X143557143Y-88862857D01*
X143057143Y-88862857D01*
X144771429Y-89648571D02*
X144628571Y-89577143D01*
X144557143Y-89434286D01*
X144557143Y-88148571D01*
X145342857Y-89648571D02*
X145342857Y-88648571D01*
X145342857Y-88148571D02*
X145271428Y-88220000D01*
X145342857Y-88291429D01*
X145414285Y-88220000D01*
X145342857Y-88148571D01*
X145342857Y-88291429D01*
X146057143Y-88648571D02*
X146057143Y-89648571D01*
X146057143Y-88791429D02*
X146128571Y-88720000D01*
X146271429Y-88648571D01*
X146485714Y-88648571D01*
X146628571Y-88720000D01*
X146700000Y-88862857D01*
X146700000Y-89648571D01*
X147414286Y-89648571D02*
X147414286Y-88148571D01*
X147557143Y-89077143D02*
X147985714Y-89648571D01*
X147985714Y-88648571D02*
X147414286Y-89220000D01*
X148485715Y-88648571D02*
X148842858Y-89648571D01*
X149200000Y-88648571D02*
X148842858Y-89648571D01*
X148700000Y-90005714D01*
X148628572Y-90077143D01*
X148485715Y-90148571D01*
X130307143Y-92048571D02*
X130307143Y-90548571D01*
X130807143Y-91620000D01*
X131307143Y-90548571D01*
X131307143Y-92048571D01*
X132664286Y-92048571D02*
X132664286Y-91262857D01*
X132592857Y-91120000D01*
X132450000Y-91048571D01*
X132164286Y-91048571D01*
X132021429Y-91120000D01*
X132664286Y-91977143D02*
X132521429Y-92048571D01*
X132164286Y-92048571D01*
X132021429Y-91977143D01*
X131950000Y-91834286D01*
X131950000Y-91691429D01*
X132021429Y-91548571D01*
X132164286Y-91477143D01*
X132521429Y-91477143D01*
X132664286Y-91405714D01*
X134021429Y-92048571D02*
X134021429Y-90548571D01*
X134021429Y-91977143D02*
X133878572Y-92048571D01*
X133592858Y-92048571D01*
X133450000Y-91977143D01*
X133378572Y-91905714D01*
X133307143Y-91762857D01*
X133307143Y-91334286D01*
X133378572Y-91191429D01*
X133450000Y-91120000D01*
X133592858Y-91048571D01*
X133878572Y-91048571D01*
X134021429Y-91120000D01*
X135307143Y-91977143D02*
X135164286Y-92048571D01*
X134878572Y-92048571D01*
X134735715Y-91977143D01*
X134664286Y-91834286D01*
X134664286Y-91262857D01*
X134735715Y-91120000D01*
X134878572Y-91048571D01*
X135164286Y-91048571D01*
X135307143Y-91120000D01*
X135378572Y-91262857D01*
X135378572Y-91405714D01*
X134664286Y-91548571D01*
X137664286Y-91262857D02*
X137878572Y-91334286D01*
X137950000Y-91405714D01*
X138021429Y-91548571D01*
X138021429Y-91762857D01*
X137950000Y-91905714D01*
X137878572Y-91977143D01*
X137735714Y-92048571D01*
X137164286Y-92048571D01*
X137164286Y-90548571D01*
X137664286Y-90548571D01*
X137807143Y-90620000D01*
X137878572Y-90691429D01*
X137950000Y-90834286D01*
X137950000Y-90977143D01*
X137878572Y-91120000D01*
X137807143Y-91191429D01*
X137664286Y-91262857D01*
X137164286Y-91262857D01*
X138521429Y-91048571D02*
X138878572Y-92048571D01*
X139235714Y-91048571D02*
X138878572Y-92048571D01*
X138735714Y-92405714D01*
X138664286Y-92477143D01*
X138521429Y-92548571D01*
X140807143Y-90548571D02*
X141164286Y-92048571D01*
X141450000Y-90977143D01*
X141735714Y-92048571D01*
X142092857Y-90548571D01*
X143307143Y-92048571D02*
X143307143Y-91262857D01*
X143235714Y-91120000D01*
X143092857Y-91048571D01*
X142807143Y-91048571D01*
X142664286Y-91120000D01*
X143307143Y-91977143D02*
X143164286Y-92048571D01*
X142807143Y-92048571D01*
X142664286Y-91977143D01*
X142592857Y-91834286D01*
X142592857Y-91691429D01*
X142664286Y-91548571D01*
X142807143Y-91477143D01*
X143164286Y-91477143D01*
X143307143Y-91405714D01*
X144021429Y-92048571D02*
X144021429Y-91048571D01*
X144021429Y-90548571D02*
X143950000Y-90620000D01*
X144021429Y-90691429D01*
X144092857Y-90620000D01*
X144021429Y-90548571D01*
X144021429Y-90691429D01*
X146592858Y-92048571D02*
X145878572Y-92048571D01*
X145878572Y-90548571D01*
X147735715Y-91048571D02*
X147735715Y-92048571D01*
X147092858Y-91048571D02*
X147092858Y-91834286D01*
X147164286Y-91977143D01*
X147307144Y-92048571D01*
X147521429Y-92048571D01*
X147664286Y-91977143D01*
X147735715Y-91905714D01*
X148450001Y-91048571D02*
X148450001Y-92048571D01*
X148450001Y-91191429D02*
X148521429Y-91120000D01*
X148664287Y-91048571D01*
X148878572Y-91048571D01*
X149021429Y-91120000D01*
X149092858Y-91262857D01*
X149092858Y-92048571D01*
D12*
X149615000Y-107680000D02*
X149615000Y-105680000D01*
X147565000Y-105680000D02*
X147565000Y-107680000D01*
X131560000Y-108280000D02*
X131560000Y-105580000D01*
X130060000Y-108280000D02*
X130060000Y-105580000D01*
X130960000Y-106780000D02*
X130710000Y-106780000D01*
X130710000Y-106780000D02*
X130860000Y-106930000D01*
X130460000Y-107030000D02*
X131160000Y-107030000D01*
X130810000Y-106680000D02*
X130810000Y-106330000D01*
X130810000Y-107030000D02*
X130460000Y-106680000D01*
X130460000Y-106680000D02*
X131160000Y-106680000D01*
X131160000Y-106680000D02*
X130810000Y-107030000D01*
X147715000Y-93310000D02*
X147715000Y-92110000D01*
X149465000Y-92110000D02*
X149465000Y-93310000D01*
X147715000Y-99660000D02*
X147715000Y-98460000D01*
X149465000Y-98460000D02*
X149465000Y-99660000D01*
X129935000Y-99660000D02*
X129935000Y-98460000D01*
X131685000Y-98460000D02*
X131685000Y-99660000D01*
X137625000Y-96485000D02*
X137625000Y-96630000D01*
X141775000Y-96485000D02*
X141775000Y-96630000D01*
X141775000Y-101635000D02*
X141775000Y-101490000D01*
X137625000Y-101635000D02*
X137625000Y-101490000D01*
X137625000Y-96485000D02*
X141775000Y-96485000D01*
X137625000Y-101635000D02*
X141775000Y-101635000D01*
X137625000Y-96630000D02*
X136225000Y-96630000D01*
X150723334Y-107037143D02*
X150675715Y-107084762D01*
X150532858Y-107132381D01*
X150437620Y-107132381D01*
X150294762Y-107084762D01*
X150199524Y-106989524D01*
X150151905Y-106894286D01*
X150104286Y-106703810D01*
X150104286Y-106560952D01*
X150151905Y-106370476D01*
X150199524Y-106275238D01*
X150294762Y-106180000D01*
X150437620Y-106132381D01*
X150532858Y-106132381D01*
X150675715Y-106180000D01*
X150723334Y-106227619D01*
X151675715Y-107132381D02*
X151104286Y-107132381D01*
X151390000Y-107132381D02*
X151390000Y-106132381D01*
X151294762Y-106275238D01*
X151199524Y-106370476D01*
X151104286Y-106418095D01*
X129512381Y-107418095D02*
X128512381Y-107418095D01*
X128512381Y-107180000D01*
X128560000Y-107037142D01*
X128655238Y-106941904D01*
X128750476Y-106894285D01*
X128940952Y-106846666D01*
X129083810Y-106846666D01*
X129274286Y-106894285D01*
X129369524Y-106941904D01*
X129464762Y-107037142D01*
X129512381Y-107180000D01*
X129512381Y-107418095D01*
X129512381Y-105894285D02*
X129512381Y-106465714D01*
X129512381Y-106180000D02*
X128512381Y-106180000D01*
X128655238Y-106275238D01*
X128750476Y-106370476D01*
X128798095Y-106465714D01*
X150523334Y-93162381D02*
X150190000Y-92686190D01*
X149951905Y-93162381D02*
X149951905Y-92162381D01*
X150332858Y-92162381D01*
X150428096Y-92210000D01*
X150475715Y-92257619D01*
X150523334Y-92352857D01*
X150523334Y-92495714D01*
X150475715Y-92590952D01*
X150428096Y-92638571D01*
X150332858Y-92686190D01*
X149951905Y-92686190D01*
X151475715Y-93162381D02*
X150904286Y-93162381D01*
X151190000Y-93162381D02*
X151190000Y-92162381D01*
X151094762Y-92305238D01*
X150999524Y-92400476D01*
X150904286Y-92448095D01*
X150523334Y-99512381D02*
X150190000Y-99036190D01*
X149951905Y-99512381D02*
X149951905Y-98512381D01*
X150332858Y-98512381D01*
X150428096Y-98560000D01*
X150475715Y-98607619D01*
X150523334Y-98702857D01*
X150523334Y-98845714D01*
X150475715Y-98940952D01*
X150428096Y-98988571D01*
X150332858Y-99036190D01*
X149951905Y-99036190D01*
X150904286Y-98607619D02*
X150951905Y-98560000D01*
X151047143Y-98512381D01*
X151285239Y-98512381D01*
X151380477Y-98560000D01*
X151428096Y-98607619D01*
X151475715Y-98702857D01*
X151475715Y-98798095D01*
X151428096Y-98940952D01*
X150856667Y-99512381D01*
X151475715Y-99512381D01*
X132743334Y-99512381D02*
X132410000Y-99036190D01*
X132171905Y-99512381D02*
X132171905Y-98512381D01*
X132552858Y-98512381D01*
X132648096Y-98560000D01*
X132695715Y-98607619D01*
X132743334Y-98702857D01*
X132743334Y-98845714D01*
X132695715Y-98940952D01*
X132648096Y-98988571D01*
X132552858Y-99036190D01*
X132171905Y-99036190D01*
X133076667Y-98512381D02*
X133695715Y-98512381D01*
X133362381Y-98893333D01*
X133505239Y-98893333D01*
X133600477Y-98940952D01*
X133648096Y-98988571D01*
X133695715Y-99083810D01*
X133695715Y-99321905D01*
X133648096Y-99417143D01*
X133600477Y-99464762D01*
X133505239Y-99512381D01*
X133219524Y-99512381D01*
X133124286Y-99464762D01*
X133076667Y-99417143D01*
X138938095Y-95012381D02*
X138938095Y-95821905D01*
X138985714Y-95917143D01*
X139033333Y-95964762D01*
X139128571Y-96012381D01*
X139319048Y-96012381D01*
X139414286Y-95964762D01*
X139461905Y-95917143D01*
X139509524Y-95821905D01*
X139509524Y-95012381D01*
X140509524Y-96012381D02*
X139938095Y-96012381D01*
X140223809Y-96012381D02*
X140223809Y-95012381D01*
X140128571Y-95155238D01*
X140033333Y-95250476D01*
X139938095Y-95298095D01*
%LPC*%
D13*
X148590000Y-104680000D03*
X148590000Y-108680000D03*
D14*
X130810000Y-105630980D03*
X130810000Y-107729020D03*
D15*
X148590000Y-91360000D03*
X148590000Y-94060000D03*
X148590000Y-97710000D03*
X148590000Y-100410000D03*
X130810000Y-97710000D03*
X130810000Y-100410000D03*
D16*
X137000000Y-97155000D03*
X137000000Y-98425000D03*
X137000000Y-99695000D03*
X137000000Y-100965000D03*
X142400000Y-100965000D03*
X142400000Y-99695000D03*
X142400000Y-98425000D03*
X142400000Y-97155000D03*
M02*
