G04 #@! TF.FileFunction,Legend,Bot*
%FSLAX46Y46*%
G04 Gerber Fmt 4.6, Leading zero omitted, Abs format (unit mm)*
G04 Created by KiCad (PCBNEW 4.0.2-stable) date Sunday, June 19, 2016 'PMt' 09:02:22 PM*
%MOMM*%
G01*
G04 APERTURE LIST*
%ADD10C,0.100000*%
%ADD11C,0.150000*%
%ADD12R,4.400000X4.400000*%
%ADD13R,5.900000X5.900000*%
G04 APERTURE END LIST*
D10*
D11*
X152400000Y-109220000D02*
X152400000Y-93980000D01*
X152400000Y-93980000D02*
X139700000Y-87630000D01*
X139700000Y-87630000D02*
X127000000Y-93980000D01*
X127000000Y-93980000D02*
X127000000Y-111760000D01*
X127000000Y-111760000D02*
X152400000Y-111760000D01*
X152400000Y-111760000D02*
X152400000Y-109220000D01*
X151915714Y-112958571D02*
X151772857Y-113006190D01*
X151725238Y-113053810D01*
X151677619Y-113149048D01*
X151677619Y-113291905D01*
X151725238Y-113387143D01*
X151772857Y-113434762D01*
X151868095Y-113482381D01*
X152249048Y-113482381D01*
X152249048Y-112482381D01*
X151915714Y-112482381D01*
X151820476Y-112530000D01*
X151772857Y-112577619D01*
X151725238Y-112672857D01*
X151725238Y-112768095D01*
X151772857Y-112863333D01*
X151820476Y-112910952D01*
X151915714Y-112958571D01*
X152249048Y-112958571D01*
X151391905Y-112482381D02*
X150820476Y-112482381D01*
X151106191Y-113482381D02*
X151106191Y-112482381D01*
X149963333Y-113482381D02*
X150534762Y-113482381D01*
X150249048Y-113482381D02*
X150249048Y-112482381D01*
X150344286Y-112625238D01*
X150439524Y-112720476D01*
X150534762Y-112768095D01*
%LPC*%
D12*
X139700000Y-102870000D03*
D13*
X126900000Y-102870000D03*
X152500000Y-102870000D03*
M02*
